<svg width="400" height="400" viewBox="0 0 400 400" fill="none" xmlns="http://www.w3.org/2000/svg">
<path d="M50 116.681C45.2778 116.681 41.3222 115.087 38.1333 111.898C34.9333 108.698 33.3333 104.737 33.3333 100.014V50.0144C33.3333 45.2922 34.9333 41.3311 38.1333 38.1311C41.3222 34.9422 45.2778 33.3477 50 33.3477H100C104.722 33.3477 108.683 34.9422 111.883 38.1311C115.072 41.3311 116.667 45.2922 116.667 50.0144C116.667 54.7366 115.072 58.6922 111.883 61.8811C108.683 65.0811 104.722 66.6811 100 66.6811H83.3333C74.1286 66.6811 66.6667 74.143 66.6667 83.3477V100.014C66.6667 104.737 65.0722 108.698 61.8833 111.898C58.6833 115.087 54.7222 116.681 50 116.681ZM50 366.681C45.2778 366.681 41.3222 365.081 38.1333 361.881C34.9333 358.692 33.3333 354.737 33.3333 350.014V300.014C33.3333 295.292 34.9333 291.337 38.1333 288.148C41.3222 284.948 45.2778 283.348 50 283.348C54.7222 283.348 58.6833 284.948 61.8833 288.148C65.0722 291.337 66.6667 295.292 66.6667 300.014V316.681C66.6667 325.886 74.1286 333.348 83.3333 333.348H100C104.722 333.348 108.683 334.948 111.883 338.148C115.072 341.337 116.667 345.292 116.667 350.014C116.667 354.737 115.072 358.692 111.883 361.881C108.683 365.081 104.722 366.681 100 366.681H50ZM350 116.681C345.278 116.681 341.322 115.087 338.133 111.898C334.933 108.698 333.333 104.737 333.333 100.014V83.3477C333.333 74.143 325.871 66.6811 316.667 66.6811H300C295.278 66.6811 291.322 65.0811 288.133 61.8811C284.933 58.6922 283.333 54.7366 283.333 50.0144C283.333 45.2922 284.933 41.3311 288.133 38.1311C291.322 34.9422 295.278 33.3477 300 33.3477H350C354.722 33.3477 358.678 34.9422 361.867 38.1311C365.067 41.3311 366.667 45.2922 366.667 50.0144V100.014C366.667 104.737 365.067 108.698 361.867 111.898C358.678 115.087 354.722 116.681 350 116.681ZM216.667 279.181C216.667 272.277 222.263 266.681 229.167 266.681H241.667V279.181C241.667 286.085 236.07 291.681 229.167 291.681C222.263 291.681 216.667 286.085 216.667 279.181ZM266.667 229.181C266.667 222.278 272.263 216.681 279.167 216.681C286.07 216.681 291.667 222.278 291.667 229.181C291.667 236.085 286.07 241.681 279.167 241.681H266.667V229.181ZM241.667 241.681H266.667V250.014C266.667 259.219 259.205 266.681 250 266.681H241.667V241.681ZM216.667 229.181C216.667 222.278 222.263 216.681 229.167 216.681C236.07 216.681 241.667 222.278 241.667 229.181V241.681H229.167C222.263 241.681 216.667 236.085 216.667 229.181ZM300 83.3477C309.205 83.3477 316.667 90.8097 316.667 100.014V166.681C316.667 175.886 309.205 183.348 300 183.348H233.333C224.129 183.348 216.667 175.886 216.667 166.681V100.014C216.667 90.8097 224.129 83.3477 233.333 83.3477H300ZM166.667 216.681C175.871 216.681 183.333 224.143 183.333 233.348V300.014C183.333 309.219 175.871 316.681 166.667 316.681H100C90.7952 316.681 83.3333 309.219 83.3333 300.014V233.348C83.3333 224.143 90.7952 216.681 100 216.681H166.667ZM166.667 83.3477C175.871 83.3477 183.333 90.8097 183.333 100.014V166.681C183.333 175.886 175.871 183.348 166.667 183.348H100C90.7952 183.348 83.3333 175.886 83.3333 166.681V100.014C83.3333 90.8097 90.7952 83.3477 100 83.3477H166.667ZM141.667 291.681C150.871 291.681 158.333 284.219 158.333 275.014V258.348C158.333 249.143 150.871 241.681 141.667 241.681H125C115.795 241.681 108.333 249.143 108.333 258.348V275.014C108.333 284.219 115.795 291.681 125 291.681H141.667ZM141.667 158.348C150.871 158.348 158.333 150.886 158.333 141.681V125.014C158.333 115.81 150.871 108.348 141.667 108.348H125C115.795 108.348 108.333 115.81 108.333 125.014V141.681C108.333 150.886 115.795 158.348 125 158.348H141.667ZM275 158.348C284.205 158.348 291.667 150.886 291.667 141.681V125.014C291.667 115.81 284.205 108.348 275 108.348H258.333C249.129 108.348 241.667 115.81 241.667 125.014V141.681C241.667 150.886 249.129 158.348 258.333 158.348H275Z" fill="#111111"/>
<path d="M241.667 350.098C241.667 354.654 245.36 358.348 249.916 358.348C252.104 358.348 254.202 357.479 255.75 355.931L319.375 292.306C322.597 289.084 322.597 283.861 319.375 280.639C316.153 277.418 310.93 277.418 307.708 280.639L244.083 344.265C242.536 345.812 241.667 347.91 241.667 350.098ZM372.549 262.674C366.067 269.155 355.568 269.186 349.049 262.743L337.152 250.987C330.682 244.593 330.651 234.155 337.083 227.723C340.278 224.528 344.203 222.931 348.858 222.931C353.508 222.931 357.431 224.528 360.625 227.723L372.292 239.389C375.486 242.584 377.153 246.439 377.292 250.956C377.431 255.467 375.903 259.32 372.708 262.514L372.549 262.674ZM233.333 375.014C230.972 375.014 228.994 374.214 227.4 372.614C225.8 371.02 225 369.042 225 366.681V343.139C225 342.028 225.208 340.953 225.625 339.914C226.042 338.87 226.667 337.931 227.5 337.098L301.548 263.05C308.057 256.541 318.61 256.541 325.118 263.05L336.965 274.896C343.474 281.405 343.474 291.957 336.965 298.466L262.917 372.514C262.083 373.348 261.147 373.973 260.108 374.389C259.064 374.806 257.986 375.014 256.875 375.014H233.333Z" fill="#111111"/>
</svg>
